<svg width="36" height="25" viewBox="0 0 36 25" fill="none" xmlns="http://www.w3.org/2000/svg">
<path d="M33.689 6.71994C32.6023 4.43566 30.7476 2.60577 28.449 1.54994C26.3475 0.500635 23.9969 0.0527109 21.6568 0.255657C19.3168 0.458604 17.0784 1.30452 15.189 2.69994L0.938957 12.6299L15.189 22.5499C17.3395 24.1556 19.9552 25.0158 22.639 24.9999C31.399 24.9999 37.999 15.9999 33.689 6.71994ZM18.489 12.7999C18.487 11.9075 18.7498 11.0346 19.2442 10.2916C19.7385 9.54862 20.4422 8.969 21.2661 8.62612C22.09 8.28323 22.9972 8.19249 23.8727 8.36538C24.7482 8.53827 25.5527 8.96701 26.1845 9.59735C26.8162 10.2277 27.2467 11.0313 27.4216 11.9064C27.5964 12.7815 27.5077 13.6888 27.1666 14.5135C26.8255 15.3382 26.2475 16.0432 25.5056 16.5392C24.7637 17.0352 23.8914 17.2999 22.999 17.2999C21.8046 17.2999 20.6589 16.8262 19.8134 15.9825C18.9679 15.1389 18.4916 13.9943 18.489 12.7999Z" fill="#FF0000"/>
</svg>
