<svg width="19" height="12" viewBox="0 0 19 12" fill="#BB8E5D" xmlns="http://www.w3.org/2000/svg">
<path d="M-0.000185057 1.99994C-0.000946083 1.86833 0.0242786 1.73787 0.0740432 1.61603C0.123808 1.49419 0.197134 1.38338 0.289816 1.28994C0.382778 1.19621 0.49338 1.12182 0.615238 1.07105C0.737097 1.02028 0.867804 0.99414 0.999815 0.99414C1.13183 0.99414 1.26253 1.02028 1.38439 1.07105C1.50625 1.12182 1.61685 1.19621 1.70981 1.28994L8.99981 8.58994L16.2898 1.28994C16.4781 1.10164 16.7335 0.995848 16.9998 0.995848C17.1317 0.995848 17.2622 1.02182 17.3841 1.07228C17.5059 1.12274 17.6166 1.1967 17.7098 1.28994C17.8031 1.38318 17.877 1.49387 17.9275 1.61569C17.9779 1.73751 18.0039 1.86808 18.0039 1.99994C18.0039 2.26624 17.8981 2.52164 17.7098 2.70994L9.70981 10.7099C9.61685 10.8037 9.50625 10.8781 9.38439 10.9288C9.26253 10.9796 9.13183 11.0057 8.99981 11.0057C8.8678 11.0057 8.7371 10.9796 8.61524 10.9288C8.49338 10.8781 8.38278 10.8037 8.28982 10.7099L0.289816 2.70994C0.197134 2.6165 0.123808 2.50568 0.0740432 2.38384C0.0242786 2.26201 -0.000946095 2.13154 -0.000185057 1.99994Z"/>
</svg>
