<svg width="19" height="12" viewBox="0 0 19 12" fill="#BB8E5D" xmlns="http://www.w3.org/2000/svg">
<path d="M19.0002 10.0001C19.0009 10.1317 18.9757 10.2621 18.926 10.384C18.8762 10.5058 18.8029 10.6166 18.7102 10.7101C18.6172 10.8038 18.5066 10.8782 18.3848 10.929C18.2629 10.9797 18.1322 11.0059 18.0002 11.0059C17.8682 11.0059 17.7375 10.9797 17.6156 10.929C17.4937 10.8782 17.3831 10.8038 17.2902 10.7101L10.0002 3.41006L2.71019 10.7101C2.52188 10.8984 2.26649 11.0042 2.00019 11.0042C1.86833 11.0042 1.73776 10.9782 1.61594 10.9277C1.49411 10.8773 1.38342 10.8033 1.29019 10.7101C1.19695 10.6168 1.12299 10.5061 1.07253 10.3843C1.02207 10.2625 0.996094 10.1319 0.996094 10.0001C0.996094 9.73376 1.10188 9.47836 1.29019 9.29006L9.29019 1.29006C9.38315 1.19633 9.49375 1.12194 9.61561 1.07117C9.73747 1.0204 9.86817 0.994262 10.0002 0.994262C10.1322 0.994262 10.2629 1.0204 10.3848 1.07117C10.5066 1.12194 10.6172 1.19633 10.7102 1.29006L18.7102 9.29006C18.8029 9.3835 18.8762 9.49432 18.926 9.61615C18.9757 9.73799 19.0009 9.86845 19.0002 10.0001Z"/>
</svg>
