<svg width="19" height="11" viewBox="0 0 19 11" fill="#BB8E5D" xmlns="http://www.w3.org/2000/svg">
<path d="M0.433279 1.03723C0.432493 0.901509 0.458508 0.76697 0.509827 0.641325C0.561146 0.51568 0.636765 0.401401 0.732342 0.305041C0.828211 0.208384 0.942266 0.131665 1.06793 0.0793097C1.1936 0.0269545 1.32839 -7.72451e-07 1.46453 -7.665e-07C1.60067 -7.60549e-07 1.73546 0.0269546 1.86112 0.0793098C1.98679 0.131665 2.10085 0.208384 2.19672 0.305041L9.71453 7.83317L17.2323 0.305042C17.4265 0.110854 17.6899 0.00176037 17.9645 0.00176038C18.1005 0.00176038 18.2352 0.0285429 18.3608 0.0805802C18.4864 0.132617 18.6006 0.20889 18.6967 0.305042C18.7929 0.401194 18.8691 0.515343 18.9212 0.640972C18.9732 0.766601 19 0.90125 19 1.03723C19 1.31185 18.8909 1.57523 18.6967 1.76942L10.4467 10.0194C10.3508 10.1161 10.2368 10.1928 10.1111 10.2452C9.98546 10.2975 9.85067 10.3245 9.71453 10.3245C9.57839 10.3245 9.4436 10.2975 9.31793 10.2452C9.19227 10.1928 9.07821 10.1161 8.98234 10.0194L0.732342 1.76942C0.636764 1.67306 0.561146 1.55878 0.509827 1.43313C0.458507 1.30749 0.432493 1.17295 0.433279 1.03723Z"/>
</svg>
