<svg width="22" height="12" viewBox="0 0 22 12" fill="#BB8E5D" xmlns="http://www.w3.org/2000/svg">
<path d="M0.167103 1.99994C0.166214 1.86833 0.195644 1.73787 0.253702 1.61603C0.311762 1.49419 0.397308 1.38338 0.505438 1.28994C0.613893 1.19621 0.742928 1.12182 0.885096 1.07105C1.02727 1.02028 1.17976 0.99414 1.33377 0.99414C1.48778 0.99414 1.64027 1.02028 1.78244 1.07105C1.92461 1.12182 2.05364 1.19621 2.1621 1.28994L10.6671 8.58994L19.1721 1.28994C19.3918 1.10164 19.6897 0.995848 20.0004 0.995848C20.1543 0.995848 20.3066 1.02182 20.4487 1.07228C20.5909 1.12274 20.72 1.1967 20.8288 1.28994C20.9375 1.38318 21.0238 1.49387 21.0827 1.61569C21.1416 1.73751 21.1719 1.86808 21.1719 1.99994C21.1719 2.26624 21.0485 2.52164 20.8288 2.70994L11.4954 10.7099C11.387 10.8037 11.2579 10.8781 11.1158 10.9288C10.9736 10.9796 10.8211 11.0057 10.6671 11.0057C10.5131 11.0057 10.3606 10.9796 10.2184 10.9288C10.0763 10.8781 9.94723 10.8037 9.83877 10.7099L0.505438 2.70994C0.397308 2.6165 0.311762 2.50568 0.253702 2.38384C0.195644 2.26201 0.166214 2.13154 0.167103 1.99994Z"/>
</svg>
