<svg width="13" height="13" viewBox="0 0 13 13" fill="none" xmlns="http://www.w3.org/2000/svg">
<path fill-rule="evenodd" clip-rule="evenodd" d="M6.12513 7.57495L1.88079 11.833C1.49363 12.2214 0.854487 12.2222 0.460751 11.8272C0.0642706 11.4294 0.0662022 10.7926 0.458934 10.3986L4.69929 6.14451L0.419946 1.85134C0.024745 1.45487 0.0280271 0.817728 0.421763 0.422721C0.818243 0.0249601 1.45362 0.0274648 1.84705 0.422163L2.88609 1.46456L6.12513 4.71406L10.4045 0.420898C10.7997 0.0244213 11.4348 0.027714 11.8285 0.422721C12.225 0.820482 12.2225 1.45791 11.8291 1.85261L10.79 2.89501L7.55098 6.14451L11.7953 10.4026C12.1825 10.791 12.1833 11.4322 11.7895 11.8272C11.393 12.2249 10.7582 12.223 10.3655 11.829L6.12513 7.57495Z" fill="#FF0000"/>
</svg>
