<svg width="20" height="22" viewBox="0 0 20 22" fill="none" xmlns="http://www.w3.org/2000/svg">
<path d="M17.5818 21.8337H2.41518V19.667H17.5818V21.8337ZM15.4152 8.83366C13.8768 8.83366 12.4468 9.66783 11.6777 11.0003H11.0818V5.58366H14.3318V3.41699H11.0818V0.166992H8.91518V3.41699H5.66518V5.58366H8.91518V11.0003H8.31934C7.12768 8.93116 4.47351 8.21616 2.41518 9.41866C0.324342 10.6103 -0.379824 13.2645 0.790176 15.3337C1.59184 16.677 3.03268 17.5003 4.58184 17.5003H15.4152C16.5644 17.5003 17.6666 17.0438 18.4793 16.2311C19.292 15.4185 19.7485 14.3163 19.7485 13.167C19.7485 12.0177 19.292 10.9155 18.4793 10.1029C17.6666 9.29021 16.5644 8.83366 15.4152 8.83366Z" fill="white"/>
</svg>
