<svg width="41" height="40" viewBox="0 0 41 40" fill="none" xmlns="http://www.w3.org/2000/svg">
<path d="M40.3525 11.8833L40.2495 11.7667L40.1613 11.6666L40.0731 11.5833L21.426 -0.0833497C21.2025 -0.22963 20.9489 -0.306641 20.6907 -0.306641C20.4326 -0.306641 20.179 -0.22963 19.9554 -0.0833497L1.33778 11.2667C1.23674 11.3214 1.13854 11.3826 1.04366 11.45L0.940717 11.55H0.852482C0.547053 11.8366 0.300609 12.1955 0.130411 12.6014C-0.0397877 13.0074 -0.129626 13.4506 -0.132812 13.9V37.5167C-0.0914086 38.3685 0.236649 39.17 0.783803 39.756C1.33096 40.342 2.05555 40.6679 2.80836 40.6666H38.1025C38.8553 40.6679 39.5799 40.342 40.127 39.756C40.6742 39.17 41.0023 38.3685 41.0437 37.5167V13.9C41.0398 13.1543 40.7938 12.4364 40.3525 11.8833ZM20.4554 22.6833L4.82307 12.8666L20.4554 3.03332L36.1025 12.85L20.4554 22.6833ZM2.80836 37.3167V15.4166L19.7201 26.0333C19.9369 26.1659 20.1796 26.2347 20.426 26.2333C20.7028 26.2293 20.9729 26.1369 21.2054 25.9667L38.1025 15.4166V37.3333L2.80836 37.3167Z" fill="#BB8E5D"/>
</svg>
