<svg width="27" height="40" viewBox="0 0 27 40" fill="none" xmlns="http://www.w3.org/2000/svg">
<path d="M13.9062 0C6.69189 0 0.84375 6.15594 0.84375 13.75C0.84375 21.3441 13.9062 40 13.9062 40C13.9062 40 26.9688 21.3441 26.9688 13.75C26.9688 6.15594 21.1206 0 13.9062 0ZM3.21875 13.75C3.21875 7.54625 8.01269 2.5 13.9062 2.5C19.7998 2.5 24.5938 7.54625 24.5938 13.75C24.5938 18.0713 18.6539 28.5034 13.9062 35.6994C9.15862 28.5034 3.21875 18.0713 3.21875 13.75ZM13.9062 7.5C10.6267 7.5 7.96875 10.2978 7.96875 13.75C7.96875 17.2022 10.6267 20 13.9062 20C17.1858 20 19.8438 17.2022 19.8438 13.75C19.8438 10.2978 17.1858 7.5 13.9062 7.5ZM13.9062 17.5C11.9418 17.5 10.3438 15.8178 10.3438 13.75C10.3438 11.6822 11.9418 10 13.9062 10C15.8707 10 17.4688 11.6822 17.4688 13.75C17.4688 15.8178 15.8707 17.5 13.9062 17.5Z" fill="#BB8E5D"/>
</svg>
