<svg width="20" height="21" viewBox="0 0 20 21" fill="none" xmlns="http://www.w3.org/2000/svg">
<g clip-path="url(#clip0_99_16693)">
<path d="M10 0.5C6.20297 0.5 3.125 3.57797 3.125 7.375C3.125 11.172 10 20.5 10 20.5C10 20.5 16.875 11.172 16.875 7.375C16.875 3.57797 13.797 0.5 10 0.5ZM4.375 7.375C4.375 4.27313 6.89813 1.75 10 1.75C13.1019 1.75 15.625 4.27313 15.625 7.375C15.625 9.53563 12.4987 14.7517 10 18.3497C7.50125 14.7517 4.375 9.53563 4.375 7.375ZM10 4.25C8.27391 4.25 6.875 5.64891 6.875 7.375C6.875 9.10109 8.27391 10.5 10 10.5C11.7261 10.5 13.125 9.10109 13.125 7.375C13.125 5.64891 11.7261 4.25 10 4.25ZM10 9.25C8.96609 9.25 8.125 8.40891 8.125 7.375C8.125 6.34109 8.96609 5.5 10 5.5C11.0339 5.5 11.875 6.34109 11.875 7.375C11.875 8.40891 11.0339 9.25 10 9.25Z" fill="#BB8E5D"/>
</g>
<defs>
<clipPath id="clip0_99_16693">
<rect width="20" height="20" fill="white" transform="translate(0 0.5)"/>
</clipPath>
</defs>
</svg>
