<svg width="42" height="63" viewBox="0 0 42 63" fill="none" xmlns="http://www.w3.org/2000/svg">
<path d="M21 0.0839844C9.60891 0.0839844 0.375 9.63851 0.375 21.4251C0.375 33.2117 21 62.1673 21 62.1673C21 62.1673 41.625 33.2117 41.625 21.4251C41.625 9.63851 32.3911 0.0839844 21 0.0839844ZM4.125 21.4251C4.125 11.7964 11.6944 3.96419 21 3.96419C30.3056 3.96419 37.875 11.7964 37.875 21.4251C37.875 28.1321 28.4963 44.3237 21 55.4924C13.5037 44.3237 4.125 28.1321 4.125 21.4251ZM21 11.7246C15.8217 11.7246 11.625 16.067 11.625 21.4251C11.625 26.7832 15.8217 31.1257 21 31.1257C26.1783 31.1257 30.375 26.7832 30.375 21.4251C30.375 16.067 26.1783 11.7246 21 11.7246ZM21 27.2454C17.8983 27.2454 15.375 24.6345 15.375 21.4251C15.375 18.2157 17.8983 15.6048 21 15.6048C24.1017 15.6048 26.625 18.2157 26.625 21.4251C26.625 24.6345 24.1017 27.2454 21 27.2454Z" fill="#BB8E5D"/>
</svg>
