<svg width="24" height="40" viewBox="0 0 24 40" fill="black" xmlns="http://www.w3.org/2000/svg">
<path d="M4.98027 39.5248C4.50568 39.0262 4.58793 33.8403 5.0752 33.5392C5.30458 33.3974 9.2666 33.4157 13.8797 33.5798L22.2671 33.8783V36.6039V39.3295H18.8987C17.046 39.3295 13.2289 39.4496 10.4163 39.5964C7.60364 39.7431 5.15743 39.7109 4.98027 39.5248ZM5.69843 31.3568C5.033 27.8098 6.41034 24.6566 10.9662 19.2973L12.8436 17.0888L11.2204 16.8624C10.3277 16.7378 9.10931 16.5095 8.51294 16.355C7.68847 16.1414 7.13073 16.3503 6.1855 17.2262C5.13372 18.2009 4.67491 18.3424 3.20475 18.1452C1.22144 17.8792 0.363281 16.966 0.363281 15.1214C0.363281 14.0749 1.04968 13.1752 4.11201 10.2079C6.1738 8.21003 8.38465 6.3928 9.025 6.16957C9.76669 5.91102 10.105 5.54399 9.95697 5.15835C9.81159 4.77952 10.1428 4.39404 10.8421 4.12818C11.7696 3.77552 11.9614 3.42794 11.9711 2.08214L11.9826 0.460938L13.4215 2.00768C14.2129 2.85839 15.7381 3.9793 16.8108 4.4986C19.6737 5.8845 22.0796 8.7052 22.9548 11.702C24.0366 15.4058 23.8573 18.3418 22.2496 23.2513C21.3294 26.061 20.837 28.4347 20.808 30.2006L20.7639 32.8825L13.3747 32.8848L5.98551 32.8871L5.69843 31.3568Z"/>
</svg>
