<svg width="10" height="15" viewBox="0 0 10 15" fill="none" xmlns="http://www.w3.org/2000/svg">
<path d="M3.28437 6H2.5C2.2225 6 2 6.22188 2 6.5V7.5C2 7.77734 2.22266 7.97188 2.5 7.97188L3 8V8.17188C3 9.54688 2.87125 10.8781 2.25 12H7.75C7.12813 10.8781 7 9.54688 7 8.17188V8L7.5 8C7.77734 8 8 7.77734 8 7.52812V6.52812C8 6.22188 7.77812 6 7.5 6H6.715C7.63438 5.425 8.25 4.4125 8.25 3.25C8.25 1.45312 6.79688 0 4.97188 0C3.14688 0 1.75 1.45312 1.75 3.25C1.75 4.4125 2.36687 5.425 3.28437 6ZM8.5 13H1.47187C0.671562 13 0 13.6719 0 14.4719C0 14.775 0.223844 15 0.5 15H9.5C9.77616 15 10 14.7762 10 14.5C10 13.6719 9.32812 13 8.5 13Z" fill="#BB8E5D"/>
</svg>
