<svg width="27" height="41" viewBox="0 0 27 41" fill="none" xmlns="http://www.w3.org/2000/svg">
<path d="M8.86781 16.666H6.75C6.00075 16.666 5.4 17.2577 5.4 17.9993V20.666C5.4 21.4056 6.00117 21.9244 6.75 21.9244L8.1 21.9993V22.4577C8.1 26.1243 7.75237 29.6743 6.075 32.666H20.925C19.2459 29.6743 18.9 26.1243 18.9 22.4577V21.9993L20.25 21.9993C20.9988 21.9993 21.6 21.4056 21.6 20.741V18.0743C21.6 17.2577 21.0009 16.666 20.25 16.666H18.1305C20.6128 15.1327 22.275 12.4327 22.275 9.33268C22.275 4.54102 18.3516 0.666016 13.4241 0.666016C8.49656 0.666016 4.725 4.54102 4.725 9.33268C4.725 12.4327 6.39056 15.1327 8.86781 16.666ZM22.95 35.3327H3.97406C1.81322 35.3327 0 37.1244 0 39.2577C0 40.066 0.604378 40.666 1.35 40.666H25.65C26.3956 40.666 27 40.0691 27 39.3327C27 37.1244 25.1859 35.3327 22.95 35.3327Z" fill="white"/>
</svg>
