<svg width="20" height="21" viewBox="0 0 20 21" fill="none" xmlns="http://www.w3.org/2000/svg">
<g clip-path="url(#clip0_99_16934)">
<path d="M8.24866 7.02653C8.23886 7.02473 8.23522 7.0239 8.2361 7.0241L8.23299 7.0234L8.22464 7.02161C8.21886 7.02042 8.21262 7.01924 8.20595 7.0181C8.19266 7.01584 8.17739 7.01374 8.16039 7.01221C8.12683 7.0092 8.08389 7.00821 8.03465 7.014C7.93317 7.02593 7.80298 7.06759 7.68755 7.17466C7.46012 7.38562 7.44163 7.69562 7.47085 7.95357C7.53195 8.49308 7.88106 9.48831 8.90021 11.4216C9.92234 13.3767 10.6122 14.2441 11.1051 14.6022C11.3623 14.7891 11.6334 14.8858 11.902 14.8339C12.0323 14.8087 12.1338 14.7529 12.2066 14.6952C12.2423 14.6669 12.2707 14.6385 12.2925 14.6137C12.3034 14.6012 12.3129 14.5894 12.321 14.5787C12.3225 14.5766 12.324 14.5746 12.3255 14.5726C12.3278 14.5694 12.33 14.5663 12.3321 14.5633L12.337 14.5563L12.3392 14.5529L12.3403 14.5513C12.3409 14.5505 12.3414 14.5496 11.9231 14.2757L12.3414 14.5496L12.3919 14.4725L12.3969 14.4497C12.4018 14.4437 12.4077 14.4367 12.4146 14.4286C12.4602 14.3759 12.5269 14.3081 12.6061 14.2336C12.7657 14.0835 12.938 13.9416 13.0071 13.8909L13.0164 13.8841L13.0253 13.8769C13.3663 13.602 13.7522 13.5025 14.1622 13.6472C14.5991 13.8014 15.165 14.2679 15.7458 15.3637L15.7461 15.3642C16.4244 16.64 16.7799 17.5835 16.8219 18.2555C16.8421 18.5785 16.7874 18.8078 16.6882 18.9777C16.5902 19.1454 16.4215 19.3023 16.1283 19.4336C13.6389 20.5279 11.3644 19.9195 10.0067 18.6078C9.99671 18.5943 9.98319 18.5759 9.96627 18.5527C9.92357 18.494 9.85914 18.4042 9.77425 18.2825C9.60446 18.0391 9.35282 17.668 9.02939 17.1626C8.3937 16.1692 7.48065 14.6567 6.36677 12.5744V12.5435L6.30949 12.4344C5.18479 10.2915 4.40033 8.65771 3.89785 7.56169C3.64662 7.01368 3.46587 6.60011 3.34835 6.32458C3.28959 6.18681 3.24663 6.08355 3.21857 6.01525C3.21084 5.99644 3.20424 5.98028 3.19875 5.96678C3.07833 5.11991 3.31531 4.14473 3.85326 3.25526C4.40053 2.35038 5.23749 1.57203 6.24291 1.14112L6.24294 1.14117L6.24998 1.13803C6.5422 1.00741 6.79014 0.977745 7.01434 1.01479C7.24232 1.05245 7.48711 1.16605 7.7581 1.3883C8.31616 1.84601 8.90482 2.69585 9.5823 3.97004C10.2162 5.16315 10.2479 5.91366 10.1013 6.34505C9.96288 6.7526 9.62158 6.99698 9.17295 7.0869L9.14876 7.09175L9.13511 7.09592C9.13543 7.09579 9.13559 7.0957 9.13558 7.09564C9.13543 7.0948 9.10364 7.0996 9.02389 7.09922C8.93576 7.09879 8.827 7.0927 8.71322 7.08304C8.6006 7.07349 8.48959 7.06101 8.39913 7.0491C8.35395 7.04316 8.31523 7.03752 8.28501 7.03269C8.26992 7.03028 8.25782 7.0282 8.24866 7.02653ZM12.377 14.4758C12.3773 14.4754 12.3776 14.475 12.3779 14.4745C12.3747 14.4801 12.3738 14.4807 12.377 14.4758Z" stroke="#BB8E5D"/>
</g>
<defs>
<clipPath id="clip0_99_16934">
<rect width="20" height="20" fill="white" transform="translate(0 0.5)"/>
</clipPath>
</defs>
</svg>
