<svg width="40" height="40" viewBox="0 0 40 40" fill="none" xmlns="http://www.w3.org/2000/svg">
<path d="M38.6309 28.9598L33.6492 23.9341C32.8257 23.1102 31.7141 22.6159 30.6848 22.6159C29.5732 22.6159 28.5851 23.069 27.7205 23.9341L24.8385 26.8177C24.715 26.7353 24.5503 26.6529 24.4268 26.6117C24.4268 26.6117 24.3856 26.6117 24.3856 26.5705L24.3444 26.5294C23.9739 26.2822 23.5622 26.035 23.0681 25.829C20.5567 24.2636 18.2099 22.0803 15.822 19.1555C14.7103 17.7549 13.9281 16.5191 13.3105 15.1596C13.9693 14.6241 14.4633 14.0886 14.8339 13.6766L16.1102 12.3996C17.0983 11.4933 17.5923 10.4634 17.5923 9.39238C17.5923 8.28012 17.0983 7.25026 16.1513 6.26159L12.2401 2.34809C11.8695 1.97734 11.499 1.60659 11.0873 1.23584C10.2638 0.453141 9.23456 0 8.16411 0C6.97014 0 5.98203 0.411946 5.07626 1.31823L2.07076 4.32544C0.876789 5.43769 0.176877 6.83831 0.0121915 8.56849V8.60968C-0.0701511 10.7518 0.259217 12.7291 1.16499 15.2008C2.60598 19.0731 4.78806 22.6982 8.0406 26.6941C12.2812 31.4727 17.0571 35.1802 22.3682 37.7343L22.4917 37.7755C24.0562 38.4758 27.0206 39.794 30.3143 40H30.7672C32.9492 40 34.5961 39.2997 35.9547 37.8167C36.4488 37.24 36.984 36.7044 37.4369 36.2101C37.8074 35.9217 38.0545 35.6334 38.3015 35.345L38.6309 35.0154L38.7132 34.9331C40.4424 33.0381 40.4424 30.7312 38.6309 28.9598ZM37.1899 33.5324L36.7782 33.9444L36.737 34.0268C36.5311 34.2739 36.3665 34.4799 36.1606 34.6447L36.0371 34.7683C35.543 35.2626 34.9666 35.8393 34.3902 36.4985C33.4433 37.5283 32.3728 37.9815 30.7672 37.9815H30.4378C27.5558 37.7755 24.9208 36.622 23.3563 35.9217L23.274 35.8805C18.2099 33.4501 13.6399 29.9073 9.64628 25.3759C6.51726 21.586 4.45869 18.1256 3.10004 14.5005C2.27661 12.2348 1.98841 10.587 2.07076 8.73326C2.19427 7.53862 2.64716 6.59114 3.47058 5.84964L6.51726 2.80124C7.01131 2.3069 7.50537 2.10093 8.12294 2.10093C8.65816 2.10093 9.15222 2.34809 9.60511 2.76004L9.64628 2.80124C10.0168 3.13079 10.3874 3.50154 10.7579 3.8723L14.6692 7.78579C15.4103 8.52729 15.5338 9.10402 15.5338 9.43357C15.5338 9.76313 15.4514 10.2575 14.6692 10.9578L13.3517 12.276C12.8988 12.7703 12.3636 13.3059 11.6637 13.8826L11.5813 13.965L11.499 14.0886C11.1284 14.5829 11.0873 15.036 11.2931 15.6952L11.3343 15.8599L11.3755 16.0247C12.0754 17.5489 12.94 18.9495 14.1751 20.5149C16.7277 23.6457 19.2804 25.9938 21.9977 27.6828L22.1212 27.7652C22.4506 27.93 22.7799 28.0947 23.0681 28.2595C23.1916 28.3831 23.3563 28.4655 23.4798 28.5067C23.6445 28.5891 23.768 28.6303 23.8504 28.7127L24.1386 28.9186H24.2209L24.3444 28.9598C24.5915 29.0422 24.7561 29.0422 24.8797 29.0422C25.2914 29.0422 25.6619 28.8774 26.0325 28.5067L29.1203 25.4171C29.6144 24.9228 30.0672 24.7168 30.6436 24.7168C31.2612 24.7168 31.8376 25.0875 32.167 25.4171L37.1899 30.4428C38.178 31.4315 38.2192 32.4614 37.1899 33.5324Z" fill="#BB8E5D"/>
</svg>
