<svg width="44" height="62" viewBox="0 0 44 62" fill="none" xmlns="http://www.w3.org/2000/svg">
<path d="M16.7508 20.283C16.7217 20.2775 16.7115 20.2751 16.715 20.2759L16.7054 20.2737L16.6797 20.268C16.6618 20.2642 16.6426 20.2604 16.6221 20.2568C16.5811 20.2496 16.5341 20.2429 16.4817 20.2381C16.3782 20.2285 16.2459 20.2253 16.0943 20.2437C15.7795 20.282 15.3852 20.415 15.0409 20.7449C14.3759 21.3823 14.322 22.3103 14.408 23.0951C14.5892 24.7482 15.629 27.8206 18.6875 33.8158C21.7521 39.8732 23.8177 42.5551 25.2924 43.6625C26.0612 44.2398 26.8856 44.549 27.7114 44.3841C28.1101 44.3045 28.4174 44.1288 28.6347 43.9508C28.7413 43.8635 28.8253 43.7765 28.8895 43.7009C28.9217 43.663 28.9494 43.6272 28.973 43.5949C28.9848 43.5787 28.9956 43.5633 29.0055 43.5487L29.0196 43.5275L29.0262 43.5174L29.0293 43.5125C29.0309 43.5101 29.0324 43.5077 27.7654 42.7048L29.0324 43.5077L29.1771 43.2793L29.1927 43.2054C29.2095 43.1838 29.2302 43.1579 29.2556 43.1275C29.3934 42.9627 29.5943 42.7519 29.8321 42.5208C30.3114 42.055 30.8288 41.6146 31.0363 41.4575L31.064 41.4364L31.0908 41.4142C32.1153 40.5605 33.2581 40.2627 34.468 40.7039C35.7719 41.1795 37.475 42.626 39.2243 46.036L39.2251 46.0377C41.2595 49.9915 42.3343 52.9307 42.4616 55.0359C42.5232 56.0527 42.3565 56.7823 42.05 57.3246C41.7492 57.8567 41.238 58.3432 40.3642 58.7476C32.9139 62.1317 26.1067 60.255 22.032 56.1857C22.0016 56.1433 21.9604 56.0853 21.9085 56.0116C21.7802 55.8294 21.5867 55.5508 21.3318 55.1732C20.8221 54.4182 20.0668 53.2672 19.0961 51.6998C17.1864 48.6161 14.4431 43.92 11.0964 37.4541V37.3578L10.9338 37.0377C7.55913 30.3937 5.20518 25.3277 3.69723 21.9289C2.94325 20.2294 2.40077 18.9468 2.04794 18.092C1.87152 17.6646 1.74252 17.3442 1.6582 17.1321C1.63315 17.0691 1.61204 17.0157 1.59481 16.9719C1.22611 14.3159 1.94556 11.2671 3.56693 8.49684C5.21507 5.68089 7.73023 3.26785 10.7413 1.93432L10.7522 1.92953L10.7629 1.92457C11.6356 1.52151 12.3701 1.43232 13.0312 1.54517C13.7056 1.66029 14.4368 2.00885 15.2518 2.69959C16.9299 4.1218 18.6994 6.76241 20.7334 10.7154C22.6384 14.4202 22.7469 16.7764 22.2954 18.1497C21.8694 19.4457 20.8308 20.1958 19.5055 20.4703L19.4309 20.4858L19.3944 20.4973C19.3946 20.4972 19.3947 20.4971 19.3947 20.497C19.3942 20.4945 19.3013 20.5087 19.068 20.5076C18.8055 20.5063 18.4806 20.4875 18.14 20.4576C17.8029 20.4281 17.4706 20.3895 17.1999 20.3526C17.0647 20.3343 16.949 20.3169 16.8588 20.302C16.8138 20.2945 16.7778 20.2882 16.7508 20.283ZM29.1394 43.2787C29.14 43.2778 29.1406 43.2769 29.1413 43.2758C29.1318 43.2929 29.1293 43.2945 29.1394 43.2787Z" stroke="#BB8E5D" stroke-width="3"/>
</svg>
