<svg width="40" height="40" viewBox="0 0 40 40" fill="none" xmlns="http://www.w3.org/2000/svg">
<mask id="path-1-inside-1_99_19420" fill="white">
<path d="M26.6667 15L17.7778 25L31.1111 40L40 0L0 17.5L8.88889 22.5L13.3333 37.5L20 27.5"/>
</mask>
<path d="M28.1615 16.3287C28.8953 15.5032 28.821 14.239 27.9954 13.5052C27.1698 12.7713 25.9057 12.8457 25.1719 13.6713L28.1615 16.3287ZM17.7778 25L16.283 23.6713C15.6094 24.429 15.6094 25.571 16.283 26.3287L17.7778 25ZM31.1111 40L29.6163 41.3287C30.1153 41.8901 30.8867 42.1245 31.6136 41.9358C32.3406 41.7471 32.9006 41.167 33.0635 40.4339L31.1111 40ZM40 0L41.9524 0.433861C42.1157 -0.301278 41.8523 -1.06586 41.2708 -1.54437C40.6893 -2.02287 39.8883 -2.13416 39.1984 -1.83231L40 0ZM0 17.5L-0.801638 15.6677C-1.49649 15.9717 -1.9596 16.6426 -1.9975 17.4001C-2.0354 18.1576 -1.64156 18.8713 -0.980522 19.2432L0 17.5ZM8.88889 22.5L10.8065 21.9318C10.6588 21.4332 10.3226 21.0118 9.86941 20.7568L8.88889 22.5ZM13.3333 37.5L11.4157 38.0682C11.6362 38.8122 12.2672 39.3616 13.0345 39.4776C13.8018 39.5935 14.567 39.2551 14.9974 38.6094L13.3333 37.5ZM21.6641 28.6094C22.2768 27.6903 22.0285 26.4486 21.1094 25.8359C20.1903 25.2232 18.9486 25.4715 18.3359 26.3906L21.6641 28.6094ZM25.1719 13.6713L16.283 23.6713L19.2726 26.3287L28.1615 16.3287L25.1719 13.6713ZM16.283 26.3287L29.6163 41.3287L32.6059 38.6713L19.2726 23.6713L16.283 26.3287ZM33.0635 40.4339L41.9524 0.433861L38.0476 -0.433861L29.1587 39.5661L33.0635 40.4339ZM39.1984 -1.83231L-0.801638 15.6677L0.801638 19.3323L40.8016 1.83231L39.1984 -1.83231ZM-0.980522 19.2432L7.90837 24.2432L9.86941 20.7568L0.980522 15.7568L-0.980522 19.2432ZM6.97129 23.0682L11.4157 38.0682L15.2509 36.9318L10.8065 21.9318L6.97129 23.0682ZM14.9974 38.6094L21.6641 28.6094L18.3359 26.3906L11.6692 36.3906L14.9974 38.6094Z" fill="#BB8E5D" mask="url(#path-1-inside-1_99_19420)"/>
</svg>
