<svg width="40" height="40" viewBox="0 0 40 40" fill="none" xmlns="http://www.w3.org/2000/svg">
<g opacity="0.3">
<mask id="path-1-inside-1_99_16675" fill="white">
<path d="M26.6667 15L17.7778 25L31.1111 40L40 0L0 17.5L8.88889 22.5L13.3333 37.5L20 27.5"/>
</mask>
<path d="M28.9089 16.9931C30.0096 15.7547 29.8981 13.8585 28.6598 12.7578C27.4214 11.657 25.5252 11.7686 24.4244 13.0069L28.9089 16.9931ZM17.7778 25L15.5356 23.0069C14.5252 24.1436 14.5252 25.8564 15.5356 26.9931L17.7778 25ZM31.1111 40L28.8689 41.9931C29.6173 42.8351 30.7745 43.1868 31.8649 42.9038C32.9554 42.6207 33.7953 41.7506 34.0397 40.6508L31.1111 40ZM40 0L42.9286 0.650791C43.1736 -0.451916 42.7785 -1.59879 41.9062 -2.31655C41.0339 -3.0343 39.8324 -3.20124 38.7975 -2.74847L40 0ZM0 17.5L-1.20246 14.7515C-2.24474 15.2075 -2.9394 16.2139 -2.99625 17.3501C-3.0531 18.4863 -2.46234 19.557 -1.47078 20.1147L0 17.5ZM8.88889 22.5L11.7653 21.6477C11.5437 20.8999 11.0395 20.2677 10.3597 19.8853L8.88889 22.5ZM13.3333 37.5L10.4569 38.3523C10.7876 39.4684 11.7341 40.2924 12.8851 40.4663C14.0361 40.6402 15.1838 40.1327 15.8295 39.1641L13.3333 37.5ZM22.4962 29.1641C23.4152 27.7855 23.0427 25.9229 21.6641 25.0038C20.2855 24.0848 18.4229 24.4573 17.5039 25.8359L22.4962 29.1641ZM24.4244 13.0069L15.5356 23.0069L20.02 26.9931L28.9089 16.9931L24.4244 13.0069ZM15.5356 26.9931L28.8689 41.9931L33.3533 38.0069L20.02 23.0069L15.5356 26.9931ZM34.0397 40.6508L42.9286 0.650791L37.0714 -0.650791L28.1826 39.3492L34.0397 40.6508ZM38.7975 -2.74847L-1.20246 14.7515L1.20246 20.2485L41.2025 2.74847L38.7975 -2.74847ZM-1.47078 20.1147L7.41811 25.1147L10.3597 19.8853L1.47078 14.8853L-1.47078 20.1147ZM6.0125 23.3523L10.4569 38.3523L16.2097 36.6477L11.7653 21.6477L6.0125 23.3523ZM15.8295 39.1641L22.4962 29.1641L17.5039 25.8359L10.8372 35.8359L15.8295 39.1641Z" fill="white" mask="url(#path-1-inside-1_99_16675)"/>
</g>
</svg>
