<svg width="50" height="51" viewBox="0 0 50 51" fill="none" xmlns="http://www.w3.org/2000/svg">
<g opacity="0.3">
<mask id="path-1-inside-1_12_17844" fill="white">
<path d="M33.3333 19.2568L22.2222 31.7568L38.8889 50.5068L50 0.506836L0 22.3818L11.1111 28.6318L16.6667 47.3818L25 34.8818"/>
</mask>
<path d="M35.5756 21.2499C36.6763 20.0116 36.5648 18.1154 35.3264 17.0146C34.0881 15.9139 32.1919 16.0254 31.0911 17.2637L35.5756 21.2499ZM22.2222 31.7568L19.98 29.7637C18.9696 30.9004 18.9696 32.6133 19.98 33.7499L22.2222 31.7568ZM38.8889 50.5068L36.6467 52.4999C37.3951 53.3419 38.5522 53.6937 39.6427 53.4106C40.7331 53.1275 41.5731 52.2574 41.8174 51.1576L38.8889 50.5068ZM50 0.506836L52.9286 1.15763C53.1736 0.0549195 52.7785 -1.09196 51.9062 -1.80971C51.0339 -2.52746 49.8324 -2.6944 48.7975 -2.24164L50 0.506836ZM0 22.3818L-1.20246 19.6334C-2.24474 20.0894 -2.9394 21.0957 -2.99625 22.2319C-3.0531 23.3682 -2.46234 24.4388 -1.47078 24.9966L0 22.3818ZM11.1111 28.6318L13.9875 27.7796C13.7659 27.0317 13.2617 26.3995 12.5819 26.0171L11.1111 28.6318ZM16.6667 47.3818L13.7903 48.2341C14.121 49.3502 15.0674 50.1742 16.2184 50.3482C17.3694 50.5221 18.5171 50.0145 19.1628 49.0459L16.6667 47.3818ZM27.4961 36.5459C28.4152 35.1674 28.0427 33.3047 26.6641 32.3857C25.2855 31.4666 23.4229 31.8391 22.5038 33.2177L27.4961 36.5459ZM31.0911 17.2637L19.98 29.7637L24.4644 33.7499L35.5756 21.2499L31.0911 17.2637ZM19.98 33.7499L36.6467 52.4999L41.1311 48.5137L24.4644 29.7637L19.98 33.7499ZM41.8174 51.1576L52.9286 1.15763L47.0714 -0.143955L35.9603 49.856L41.8174 51.1576ZM48.7975 -2.24164L-1.20246 19.6334L1.20246 25.1303L51.2025 3.25531L48.7975 -2.24164ZM-1.47078 24.9966L9.64033 31.2466L12.5819 26.0171L1.47078 19.7671L-1.47078 24.9966ZM8.23472 29.4841L13.7903 48.2341L19.5431 46.5296L13.9875 27.7796L8.23472 29.4841ZM19.1628 49.0459L27.4961 36.5459L22.5038 33.2177L14.1705 45.7177L19.1628 49.0459Z" fill="white" mask="url(#path-1-inside-1_12_17844)"/>
</g>
</svg>
