<svg width="40" height="40" viewBox="0 0 40 40" fill="none" xmlns="http://www.w3.org/2000/svg">
<g opacity="0.3">
<path d="M40 19.2677C39.9919 22.7604 39.2275 25.8417 37.6825 28.7052C36.2269 31.4074 34.2184 33.6579 31.6894 35.4324C29.4694 36.9892 27.0381 38.054 24.379 38.6025C21.4353 39.2074 18.4917 39.1429 15.5724 38.4492C14.0274 38.0782 12.5474 37.5135 11.1569 36.7634C10.921 36.6343 10.7178 36.6262 10.4657 36.7069C7.40002 37.6829 4.33437 38.6509 1.26872 39.6188C0.919053 39.7317 0.577521 39.8366 0.227858 39.9656C-0.0160927 40.0544 -0.032356 39.9656 0.0326976 39.764C0.390492 38.7234 0.740155 37.6829 1.09795 36.6343C1.86233 34.3677 2.62671 32.1011 3.40735 29.8425C3.51306 29.5441 3.35856 29.3505 3.23659 29.1408C2.27705 27.4872 1.59398 25.7288 1.17114 23.8736C0.252253 19.8727 0.577521 15.9525 2.12254 12.1533C3.01703 9.95934 4.29371 7.99118 5.92818 6.24888C8.00989 4.02261 10.4738 2.38517 13.3199 1.28816C15.979 0.263752 18.7275 -0.131493 21.5573 0.0378978C25.4361 0.271818 28.9653 1.54628 32.0635 3.86935C36.0724 6.86998 38.5932 10.8144 39.6015 15.7105C39.8699 16.9608 39.9675 18.2272 40 19.2677ZM20.1993 3.30471C19.4431 3.27245 18.5567 3.36118 17.6704 3.49024C17.3207 3.53863 16.9792 3.61123 16.6376 3.69996C11.352 5.03088 7.55452 8.16057 5.3183 13.089C4.02536 15.9364 3.6757 18.9451 4.1636 22.0264C4.54579 24.4624 5.45654 26.7048 6.87959 28.7294C7.03409 28.9553 7.05849 29.1489 6.96904 29.3989C6.36729 31.1493 5.78181 32.9077 5.18819 34.6661C5.15567 34.7629 5.05809 34.8759 5.14754 34.9646C5.23699 35.0614 5.35083 34.9565 5.44841 34.9243C7.22925 34.3596 9.01009 33.8031 10.7747 33.2142C11.1813 33.0771 11.474 33.1416 11.8237 33.3513C15.8163 35.7309 20.0855 36.36 24.5823 35.1743C27.9976 34.279 30.8112 32.4318 33.0393 29.7054C35.1942 27.0678 36.3977 24.051 36.6416 20.6793C36.8286 18.0901 36.4221 15.5734 35.3812 13.1697C34.072 10.1449 32.0309 7.725 29.2743 5.92623C26.5746 4.1678 23.5902 3.26438 20.1993 3.30471Z" fill="white"/>
<path d="M10.4922 14.8234C10.5247 13.0085 11.2403 11.5163 12.639 10.3547C13.0374 10.024 13.5172 9.88688 14.0457 9.97561C14.2734 10.0079 14.5092 10.0401 14.7288 10.0159C15.2818 9.97561 15.5989 10.2821 15.7697 10.7338C16.2901 12.089 16.7943 13.4521 17.3066 14.8073C17.4041 15.0654 17.3797 15.2993 17.2578 15.5413C16.9406 16.1947 16.4365 16.7028 15.9323 17.211C15.4932 17.6546 15.4688 17.7998 15.7697 18.3403C17.2252 20.9537 19.2338 22.9864 22.0148 24.2205C22.153 24.277 22.275 24.3738 22.4051 24.4303C22.7548 24.5997 23.0719 24.5835 23.3647 24.2851C23.9339 23.7124 24.4624 23.0993 24.9747 22.4702C25.3732 21.9781 25.5602 21.9055 26.1213 22.1556C27.4874 22.7848 28.7885 23.5188 30.114 24.2286C30.5531 24.4625 30.6019 24.7852 30.5368 25.374C30.2685 27.7697 28.4226 28.8586 26.3165 29.2055C25.609 29.3184 24.9422 29.2539 24.2754 29.0441C22.3238 28.4311 20.4047 27.7213 18.6808 26.6081C17.0707 25.5676 15.6883 24.2689 14.4767 22.7928C13.2976 21.349 12.2486 19.8245 11.3785 18.1709C10.8906 17.2271 10.4922 15.7591 10.4922 14.8234Z" fill="white"/>
</g>
</svg>
