<svg width="41" height="40" viewBox="0 0 41 40" fill="none" xmlns="http://www.w3.org/2000/svg">
<path d="M40.3555 19.2677C40.3473 22.7604 39.583 25.8417 38.0379 28.7052C36.5824 31.4074 34.5738 33.6579 32.0449 35.4324C29.8249 36.9892 27.3935 38.054 24.7345 38.6025C21.7908 39.2074 18.8471 39.1429 15.9278 38.4492C14.3828 38.0782 12.9029 37.5135 11.5123 36.7634C11.2765 36.6343 11.0732 36.6262 10.8211 36.7069C7.75549 37.6829 4.68984 38.6509 1.62418 39.6188C1.27452 39.7317 0.93299 39.8366 0.583327 39.9656C0.339376 40.0544 0.323113 39.9656 0.388166 39.764C0.745961 38.7234 1.09562 37.6829 1.45342 36.6343C2.2178 34.3677 2.98218 32.1011 3.76282 29.8425C3.86853 29.5441 3.71403 29.3505 3.59206 29.1408C2.63252 27.4872 1.94945 25.7288 1.5266 23.8736C0.607722 19.8727 0.93299 15.9525 2.47801 12.1533C3.3725 9.95934 4.64918 7.99118 6.28365 6.24888C8.36536 4.02261 10.8293 2.38517 13.6754 1.28816C16.3344 0.263752 19.0829 -0.131493 21.9128 0.0378978C25.7916 0.271818 29.3208 1.54628 32.4189 3.86935C36.4279 6.86998 38.9487 10.8144 39.957 15.7105C40.2254 16.9608 40.3229 18.2272 40.3555 19.2677ZM20.5548 3.30471C19.7985 3.27245 18.9122 3.36118 18.0258 3.49024C17.6762 3.53863 17.3346 3.61123 16.9931 3.69996C11.7075 5.03088 7.90999 8.16057 5.67377 13.089C4.38083 15.9364 4.03117 18.9451 4.51907 22.0264C4.90126 24.4624 5.81201 26.7048 7.23506 28.7294C7.38956 28.9553 7.41395 29.1489 7.32451 29.3989C6.72276 31.1493 6.13728 32.9077 5.54366 34.6661C5.51114 34.7629 5.41356 34.8759 5.50301 34.9646C5.59245 35.0614 5.7063 34.9565 5.80388 34.9243C7.58472 34.3596 9.36556 33.8031 11.1301 33.2142C11.5367 33.0771 11.8295 33.1416 12.1791 33.3513C16.1718 35.7309 20.4409 36.36 24.9378 35.1743C28.3531 34.279 31.1666 32.4318 33.3947 29.7054C35.5496 27.0678 36.7531 24.051 36.9971 20.6793C37.1841 18.0901 36.7775 15.5734 35.7367 13.1697C34.4275 10.1449 32.3864 7.725 29.6298 5.92623C26.93 4.1678 23.9457 3.26438 20.5548 3.30471Z" fill="#BB8E5D"/>
<path d="M10.8438 14.8234C10.8763 13.0085 11.5919 11.5163 12.9905 10.3547C13.389 10.024 13.8687 9.88688 14.3973 9.97561C14.625 10.0079 14.8608 10.0401 15.0804 10.0159C15.6333 9.97561 15.9505 10.2821 16.1212 10.7338C16.6417 12.089 17.1458 13.4521 17.6581 14.8073C17.7557 15.0654 17.7313 15.2993 17.6093 15.5413C17.2922 16.1947 16.788 16.7028 16.2839 17.211C15.8447 17.6546 15.8203 17.7998 16.1212 18.3403C17.5768 20.9537 19.5853 22.9864 22.3664 24.2205C22.5046 24.277 22.6266 24.3738 22.7567 24.4303C23.1064 24.5997 23.4235 24.5835 23.7162 24.2851C24.2854 23.7124 24.814 23.0993 25.3263 22.4702C25.7248 21.9781 25.9118 21.9055 26.4729 22.1556C27.839 22.7848 29.1401 23.5188 30.4655 24.2286C30.9047 24.4625 30.9534 24.7852 30.8884 25.374C30.62 27.7697 28.7741 28.8586 26.668 29.2055C25.9606 29.3184 25.2938 29.2539 24.627 29.0441C22.6754 28.4311 20.7563 27.7213 19.0324 26.6081C17.4223 25.5676 16.0399 24.2689 14.8283 22.7928C13.6492 21.349 12.6002 19.8245 11.7301 18.1709C11.2422 17.2271 10.8438 15.7591 10.8438 14.8234Z" fill="#BB8E5D"/>
</svg>
