<svg width="50" height="51" viewBox="0 0 50 51" fill="none" xmlns="http://www.w3.org/2000/svg">
<g opacity="0.3">
<path d="M50 24.5915C49.9898 28.9574 49.0344 32.809 47.1031 36.3884C45.2836 39.7661 42.773 42.5792 39.6118 44.7974C36.8368 46.7434 33.7976 48.0743 30.4738 48.7599C26.7942 49.5161 23.1146 49.4354 19.4655 48.5683C17.5342 48.1045 15.6842 47.3987 13.9461 46.461C13.6513 46.2997 13.3972 46.2896 13.0821 46.3905C9.25002 47.6105 5.41796 48.8204 1.58589 50.0303C1.14882 50.1715 0.721902 50.3026 0.284823 50.4639C-0.0201158 50.5748 -0.040445 50.4639 0.040872 50.2118C0.488115 48.9111 0.925194 47.6105 1.37244 46.2997C2.32791 43.4665 3.28339 40.6332 4.25919 37.81C4.39133 37.437 4.1982 37.195 4.04573 36.9328C2.84631 34.8659 1.99248 32.6678 1.46392 30.3488C0.315317 25.3477 0.721902 20.4475 2.65318 15.6985C3.77129 12.956 5.36714 10.4958 7.41022 8.31794C10.0124 5.53509 13.0922 3.48829 16.6499 2.11704C19.9737 0.836526 23.4093 0.34247 26.9466 0.554208C31.7952 0.846608 36.2066 2.43969 40.0793 5.34352C45.0905 9.09431 48.2415 14.0248 49.5019 20.145C49.8374 21.7078 49.9593 23.2908 50 24.5915ZM25.2491 4.63773C24.3038 4.5974 23.1959 4.70831 22.0879 4.86963C21.6509 4.93013 21.2239 5.02087 20.797 5.13178C14.19 6.79544 9.44315 10.7076 6.64788 16.8681C5.0317 20.4273 4.59462 24.1882 5.2045 28.0398C5.68224 31.0848 6.82068 33.8878 8.59949 36.4186C8.79261 36.7009 8.82311 36.9429 8.7113 37.2555C7.95911 39.4434 7.22726 41.6415 6.48524 43.8395C6.44459 43.9605 6.32261 44.1017 6.43442 44.2126C6.54623 44.3336 6.68854 44.2025 6.81051 44.1622C9.03656 43.4564 11.2626 42.7607 13.4683 42.0246C13.9766 41.8532 14.3425 41.9339 14.7796 42.196C19.7704 45.1704 25.1068 45.9569 30.7279 44.4747C34.997 43.3555 38.514 41.0466 41.2991 37.6386C43.9927 34.3416 45.4971 30.5706 45.802 26.356C46.0358 23.1194 45.5276 19.9736 44.2265 16.9689C42.59 13.1879 40.0387 10.1631 36.5929 7.91463C33.2182 5.71658 29.4878 4.58731 25.2491 4.63773Z" fill="white"/>
<path d="M13.1133 19.0361C13.1539 16.7675 14.0484 14.9022 15.7967 13.4502C16.2948 13.0368 16.8945 12.8654 17.5552 12.9764C17.8398 13.0167 18.1346 13.057 18.409 13.0268C19.1002 12.9764 19.4967 13.3595 19.7101 13.9241C20.3607 15.618 20.9909 17.322 21.6312 19.0159C21.7532 19.3386 21.7227 19.631 21.5702 19.9335C21.1738 20.7502 20.5436 21.3854 19.9134 22.0206C19.3645 22.5751 19.334 22.7566 19.7101 23.4322C21.5296 26.699 24.0403 29.2399 27.5166 30.7825C27.6894 30.8531 27.8418 30.9741 28.0045 31.0447C28.4415 31.2564 28.838 31.2362 29.2039 30.8632C29.9154 30.1473 30.5761 29.381 31.2165 28.5946C31.7145 27.9795 31.9483 27.8888 32.6497 28.2013C34.3573 28.9878 35.9837 29.9053 37.6405 30.7926C38.1894 31.085 38.2504 31.4883 38.1691 32.2243C37.8336 35.2189 35.5263 36.5801 32.8936 37.0137C32.0093 37.1548 31.1758 37.0742 30.3423 36.812C27.9028 36.0457 25.504 35.1584 23.3491 33.767C21.3365 32.4663 19.6085 30.843 18.0939 28.9979C16.6201 27.193 15.3088 25.2874 14.2212 23.2204C13.6113 22.0408 13.1133 20.2057 13.1133 19.0361Z" fill="white"/>
</g>
</svg>
